# xmcd
#
# Track frame offsets:
#	150
#	31225
#	50287
#	72794
#	93231
#	111205
#	128337
#	146894
#	165286
#	183343
#	200388
#	222240
#	238072
#	263591
#
# Disc length: 3818 seconds
#
# Revision: 0
# Processed by: cddbd v1.4PL0 Copyright (c) Steve Scherf et al.
# Submitted via: EasyCDDAExtractor 4.6.0.1
#
DISCID=b90ee80e
DTITLE=Pablo Herrera - Sentado en la Vereda
DYEAR=1900
DGENRE=
TTITLE0=BONUS TRACK
TTITLE1=Estoy vacío
TTITLE2=Que tonto fui
TTITLE3=Sentado en la vereda
TTITLE4=Perdido sin tí
TTITLE5=Yo soy tu amigo
TTITLE6=Qué hago
TTITLE7=Yo nunca quise enamorarme
TTITLE8=Ella es mi mujer
TTITLE9=Me encantas
TTITLE10=Fue tan natural
TTITLE11=Llámame
TTITLE12=Dentro de mi ser
TTITLE13=No tengas miedo
EXTD=
EXTT0=
EXTT1=
EXTT2=
EXTT3=
EXTT4=
EXTT5=
EXTT6=
EXTT7=
EXTT8=
EXTT9=
EXTT10=
EXTT11=
EXTT12=
EXTT13=
PLAYORDER=
